# xmcd
#
# Track frame offsets:
#	150
#	12368
#	23457
#	35909
#	47364
#	61754
#	74174
#	90307
#	99281
#	110693
#	121709
#	132952
#	146551
#	157039
#	167348
#
# Disc length: 2385 seconds
#
# Revision: 2
# Processed by: cddbd v1.5.2PL0 Copyright (c) Steve Scherf et al.
# Submitted via: audiograbber 1.83.01
#
DISCID=bc094f0f
DTITLE=B.B.King - Beale Street Blues Boys 01
DYEAR=1950
DGENRE=Blues
TTITLE0=B.B.King - Miss Martha King (King)
TTITLE1=B.B.King - When Your Baby Packs Up and Goes (King)
TTITLE2=B.B.King - Got the Blues (King)
TTITLE3=B.B.King - Take a Swing with me (King)
TTITLE4=B.B.King - B.B.Boogie (King - Taub)
TTITLE5=B.B.King - Mistreated Woman (King - King - Taub)
TTITLE6=B.B.King - The Other Night Blues (Bihari - King - King)
TTITLE7=B.B.King - My Baby's Gone (King - King - Taub)
TTITLE8=B.B.King - She's a Mean Woman (King - King - Taub)
TTITLE9=B.B.King - B.B.Blues (King - Taub)
TTITLE10=B.B.King - She's Dynamite (Whittaker)
TTITLE11=B.B.King - Three O'Clock Blues (King - Taub)
TTITLE12=B.B.King - Don't You Want a Man Like Me (King - Taub)
TTITLE13=B.B.King - That Ain't the Way to Do it (King - Taub)
TTITLE14=B.B.King - Shake it Up and Go (King - King - Taub)
EXTD=
EXTT0=
EXTT1=
EXTT2=
EXTT3=
EXTT4=
EXTT5=
EXTT6=
EXTT7=
EXTT8=
EXTT9=
EXTT10=
EXTT11=
EXTT12=
EXTT13=
EXTT14=arr.by Ledeburgh
PLAYORDER=
